# xmcd
#
# Track frame offsets:
#	150
#	12523
#	23366
#	37206
#	47813
#	59601
#	73827
#	84212
#	95888
#	108524
#	121842
#	134558
#	146432
#	157623
#	166290
#	180837
#	193476
#	207139
#	220511
#	230426
#
# Disc length: 3253 seconds
#
# Revision: 1
# Processed by: cddbd v1.5.2PL0 Copyright (c) Steve Scherf et al.
# Submitted via: audiograbber 1.83.01
#
DISCID=150cb314
DTITLE=Dean Martin - The Golden Years of Dean Martin CD 2
DYEAR=2006
DGENRE=Big Band
TTITLE0=Sway
TTITLE1=Kiss
TTITLE2=You BelongTo Me
TTITLE3=Louise
TTITLE4=Moments Like This
TTITLE5=How Do You Speak To An Angel?
TTITLE6=Pennies From Heaven
TTITLE7=I'll Always Love You (Day After Day)
TTITLE8=If
TTITLE9=Beside You
TTITLE10=We Never Talk Much (We Just Sit Around)
TTITLE11=I Still Get A Thrill
TTITLE12=Be Honest With Me
TTITLE13=I Don't Care If The Sun Don't Shine
TTITLE14=I'm Gonna Paper All My Walls (With Your Love Letters)
TTITLE15=Just For Fun
TTITLE16=That Lucky Old Sun
TTITLE17=I'm In Love With You 
TTITLE18=If I Could Sing Like Bing
TTITLE19=In The Cool, Cool, Cool Of The Evening
EXTD=
EXTT0=
EXTT1=
EXTT2=
EXTT3=
EXTT4=
EXTT5=
EXTT6=
EXTT7=
EXTT8=
EXTT9=
EXTT10=
EXTT11=
EXTT12=
EXTT13=
EXTT14=
EXTT15=
EXTT16=
EXTT17=
EXTT18=
EXTT19=
PLAYORDER=
